<svg xmlns="http://www.w3.org/2000/svg" version="1.1" xmlns:xlink="http://www.w3.org/1999/xlink" xmlns:svgjs="http://svgjs.com/svgjs" width="43" height="62"><svg width="43" height="62" viewBox="0 0 43 62" fill="none" xmlns="http://www.w3.org/2000/svg">
<path d="M35.0279 29.8442C35.0279 29.8442 37.399 27.4458 38.1984 26.7811C38.2164 26.7631 38.2523 26.7272 38.2972 26.6913C42.6892 21.5352 44.0454 15.8491 41.4138 9.49826C40.8569 8.15085 40.1564 6.98309 39.357 5.96804C36.456 2.29409 32.064 0.63228 27.0972 0.353814C20.1993 -0.0324442 13.2746 -0.0234614 6.36773 0.0214524C6.34977 0.0214524 6.34078 0.0214524 6.32282 0.0214524C6.0893 0.00348687 5.85578 0.00348689 5.61328 0.00348689C2.15538 0.0933145 0.0626711 2.51866 0.0626711 6.57887V6.68666C0.044708 14.6723 0.0626711 22.649 0.0626711 30.6347C0.0626711 38.6204 0.0536895 33.5182 0.0626711 41.5038C0.0626711 45.7167 2.1913 48.1511 6.20606 48.178C6.25097 48.178 6.29588 48.178 6.34977 48.178C9.5472 47.9534 11.577 45.6 11.6579 41.7553L11.6758 37.5065C11.6758 37.0574 12.0351 36.6981 12.4842 36.6981C14.3703 36.6891 16.2654 36.6442 18.1426 36.6262C18.4479 36.6262 18.7533 36.6262 19.0587 36.6262C19.8131 36.6262 20.5676 36.6262 21.313 36.6262C21.7531 36.6262 22.1932 36.6442 22.6333 36.6531C22.8489 36.6531 23.0734 36.6621 23.289 36.6711C23.9446 36.6981 24.5913 36.734 25.238 36.7789C29.2348 37.0663 31.8843 40.1205 31.9293 43.7046C31.9742 47.2977 29.5671 50.4327 25.7589 50.7381C25.3997 50.765 25.0494 50.792 24.6901 50.81C24.5913 50.81 24.5015 50.8189 24.4027 50.8279C24.1782 50.8369 23.9536 50.8549 23.7201 50.8639C23.5046 50.8728 23.28 50.8818 23.0645 50.8908C22.8399 50.8908 22.6154 50.9088 22.3908 50.9088C22.1663 50.9088 21.9418 50.9178 21.7172 50.9178C21.0526 50.9267 22.1843 50.9267 21.5106 50.9178H21.4298C21.4298 50.9178 21.4298 50.9178 21.4298 50.9267C20.873 50.9267 20.3071 50.9267 19.7503 50.9267C16.0229 50.9267 13.8584 52.8041 13.8404 56.3703C13.8404 56.4152 13.8404 56.4511 13.8404 56.496C14.038 59.3346 16.1307 61.1222 19.5257 61.203C20.0646 61.212 20.5945 61.221 21.1334 61.23C21.1334 61.23 21.1514 61.23 21.1604 61.23C21.1604 61.23 21.1693 61.23 21.1783 61.23C21.1783 61.23 21.2143 61.23 21.2322 61.23C23.792 61.1761 24.5464 61.0862 27.0972 60.9425C32.064 60.6641 36.447 59.0022 39.357 55.3283C40.1654 54.3043 40.8569 53.1455 41.4138 51.7981C44.0364 45.4473 42.7071 39.3929 38.2972 34.2547C38.2792 34.2368 38.2433 34.1919 38.2253 34.1739C37.4439 33.3744 35.001 31.0659 35.001 31.0659C34.6597 30.7335 34.6686 30.1766 35.0369 29.8622L35.0279 29.8442ZM25.229 24.4995C21.1244 24.7959 16.9839 24.5983 12.6818 24.5713C12.2327 24.5713 11.8734 24.212 11.8734 23.7629V11.2679C11.8734 10.8187 12.2327 10.4594 12.6818 10.4594C17.1366 10.4325 21.4657 10.2079 25.7499 10.5492C29.5581 10.8547 31.9562 13.9896 31.9203 17.5827C31.8754 21.1579 29.2258 24.212 25.229 24.5085V24.4995Z" fill="#FF1493"></path>
<path d="M5.62269 61.4275C2.38933 61.4634 0.0271764 59.1548 0.000231681 55.921C-0.026713 52.6873 2.29951 50.2619 5.46102 50.226C8.58661 50.19 11.1014 52.6334 11.1553 55.7594C11.2092 58.8943 8.77522 61.3826 5.62269 61.4185V61.4275Z" fill="#224BF4"></path>
</svg><style>@media (prefers-color-scheme: light) { :root { filter: none; } }
</style></svg>