<svg width="87" height="17" viewBox="0 0 87 17" fill="none" xmlns="http://www.w3.org/2000/svg">
<path d="M85.2697 12.5263C84.921 11.6885 84.571 10.8514 84.2051 9.97479C84.1924 9.94494 84.1835 9.91382 84.1771 9.88206C84.1435 9.70611 84.2146 9.52635 84.3594 9.42091C84.409 9.38471 84.4528 9.35231 84.496 9.31865C86.3393 7.89456 86.7884 5.97502 86.3381 3.81221C85.9112 1.75992 84.55 0.43683 82.5219 0.197364C80.3673 -0.0573457 78.1689 0.0150656 75.9902 0.0372971C75.1562 0.0461898 74.6627 0.736638 74.6608 1.64114C74.6513 5.90452 74.65 10.1679 74.6621 14.4306C74.6646 15.3669 75.254 15.9849 76.095 16.0199C76.9811 16.0567 77.622 15.4584 77.6913 14.5056C77.7173 14.148 77.7002 13.7866 77.7002 13.427C77.7008 12.4368 77.7002 11.4472 77.7002 10.4099C78.3023 10.4099 78.7889 10.4137 79.271 10.4023C80.3419 10.3775 81.2947 10.5045 81.5487 11.0127C82.0302 12.1636 82.7213 13.9022 83.2053 15.0518C83.5439 15.8566 84.2731 16.1768 85.0092 15.9043C85.7848 15.6172 86.1215 14.8727 85.8388 14.0286C85.7327 13.7116 85.3973 12.835 85.269 12.5257L85.2697 12.5263ZM81.6904 7.73767C80.4029 7.86089 79.0944 7.76561 77.6874 7.76561C77.6874 6.30786 77.6709 4.89902 77.709 3.49144C77.7135 3.32121 78.0146 3.0195 78.1835 3.01569C79.3103 2.99155 80.4442 2.97122 81.5659 3.0665C82.7759 3.1694 83.4359 3.9907 83.4873 5.26234C83.5407 6.58226 82.8788 7.62333 81.6904 7.73767Z" fill="#FF1493"/>
<path d="M25.3716 12.5263C25.0229 11.6885 24.6729 10.8514 24.307 9.97479C24.2943 9.94494 24.2854 9.91382 24.2791 9.88206C24.2454 9.70611 24.3165 9.52635 24.4614 9.42091C24.5109 9.38471 24.5547 9.35231 24.5979 9.31865C26.4412 7.89456 26.8903 5.97502 26.44 3.81221C26.0131 1.75992 24.6519 0.43683 22.6238 0.197364C20.4698 -0.0573457 18.2708 0.0150656 16.0928 0.0372971C15.2588 0.0461898 14.7652 0.736638 14.7633 1.64114C14.7538 5.90452 14.7525 10.1679 14.7646 14.4306C14.7671 15.3669 15.3566 15.9849 16.1976 16.0199C17.0837 16.0567 17.7246 15.4584 17.7938 14.5056C17.8198 14.148 17.8027 13.7866 17.8027 13.427C17.8033 12.4368 17.8027 11.4472 17.8027 10.4099C18.4048 10.4099 18.8914 10.4137 19.3735 10.4023C20.4444 10.3775 21.3972 10.5045 21.6513 11.0127C22.1328 12.1636 22.8238 13.9022 23.3079 15.0518C23.6464 15.8566 24.3756 16.1768 25.1118 15.9043C25.8873 15.6172 26.224 14.8727 25.9413 14.0286C25.8353 13.7116 25.4999 12.835 25.3716 12.5257V12.5263ZM21.7923 7.73767C20.5048 7.86089 19.1963 7.76561 17.7894 7.76561C17.7894 6.30786 17.7728 4.89902 17.8109 3.49144C17.8154 3.32121 18.1165 3.0195 18.2854 3.01569C19.4123 2.99155 20.5461 2.97122 21.6678 3.0665C22.8778 3.1694 23.5378 3.9907 23.5892 5.26234C23.6426 6.58226 22.9807 7.62333 21.7923 7.73767Z" fill="#FF1493"/>
<path d="M32.6379 3.06523V6.60004C33.6059 6.60004 34.5422 6.60004 35.4791 6.60004C36.2476 6.60004 37.0162 6.59179 37.7841 6.60258C38.7947 6.61719 39.4274 7.17298 39.4325 8.03175C39.4375 8.87401 38.7992 9.46537 37.7886 9.48061C36.2521 9.50412 34.7149 9.48697 33.1784 9.49014C33.0266 9.49014 32.8748 9.51428 32.6639 9.5327V13.0364C32.9732 13.0364 33.247 13.0364 33.5208 13.0364C35.3139 13.0383 37.107 13.0231 38.8989 13.051C39.7532 13.0643 40.3579 13.7027 40.377 14.5107C40.396 15.3097 39.8015 16.0002 38.9478 16.0103C36.3105 16.0421 33.6719 16.0415 31.0347 16.0122C30.1911 16.0027 29.6766 15.4476 29.6188 14.5913C29.5775 13.979 29.5979 13.3629 29.5972 12.748C29.596 9.16239 29.5928 5.57676 29.5985 1.99113C29.601 0.553701 30.1174 0.0385641 31.5339 0.0309419C32.3793 0.0264956 37.8489 0.014427 38.6937 0.0353882C39.7037 0.0601605 40.3783 0.687725 40.3706 1.5573C40.363 2.43195 39.6821 3.0449 38.6848 3.06332C38.23 3.07222 33.1511 3.06459 32.6372 3.06459L32.6379 3.06523Z" fill="#FF1493"/>
<path d="M53.7554 2.81623C54.5253 2.08132 54.6002 1.17808 53.9587 0.514312C53.3133 -0.153269 52.4152 -0.0929263 51.658 0.682002C51.1645 1.18698 47.5109 4.88313 46.8808 5.55134C46.8808 4.119 46.8827 2.89817 46.8801 1.67797C46.8782 0.941158 46.5803 0.380288 45.8696 0.109063C44.7993 -0.299362 43.8395 0.479377 43.837 1.77643C43.8281 5.93436 43.8338 10.0923 43.8344 14.2496C43.8344 14.3779 43.8312 14.5075 43.8465 14.6339C43.9456 15.4552 44.5401 16.0097 45.3271 16.0205C46.1516 16.0319 46.7798 15.4704 46.8674 14.6142C46.9011 14.2839 46.8814 13.9479 46.8821 13.6138C46.8833 12.4501 46.8821 11.2864 46.8821 9.91253C47.4556 10.5217 47.8723 10.9644 48.2903 11.4065C49.5594 12.7499 50.8221 14.0991 52.1007 15.4329C52.7931 16.1558 53.7402 16.232 54.3576 15.6489C55.008 15.034 54.9712 14.0838 54.2629 13.3254C54.0527 13.1005 53.8323 12.8846 53.6163 12.6654C52.0023 11.0247 50.3876 9.38406 48.7857 7.75544L53.7567 2.81559L53.7554 2.81623Z" fill="#FF1493"/>
<path d="M9.66007 7.82027C9.66007 7.82027 10.28 7.19397 10.4884 7.01866C10.4941 7.01358 10.5036 7.00532 10.5131 6.99389C11.6615 5.64475 12.016 4.15905 11.3293 2.49867C11.1839 2.14678 11.001 1.84189 10.7907 1.57511C10.031 0.614076 8.88388 0.179608 7.58492 0.107832C5.78162 0.00747249 3.97071 0.00937805 2.1636 0.0201762C2.15979 0.0201762 2.15598 0.0201762 2.15153 0.0201762C2.09119 0.0157299 2.02957 0.0144595 1.96606 0.0163651C1.06346 0.0424078 0.51656 0.675689 0.515289 1.73645V1.76503C0.512749 3.85289 0.515289 5.94012 0.515289 8.02734C0.515289 10.1146 0.512749 8.78131 0.515289 10.8685C0.51656 11.9693 1.07108 12.607 2.12168 12.6134C2.13375 12.6134 2.14581 12.6134 2.15788 12.6134C2.99442 12.555 3.5248 11.9382 3.54704 10.9346L3.55085 9.82365C3.55085 9.70677 3.64613 9.61213 3.763 9.6115C4.25654 9.60832 4.75135 9.59752 5.24235 9.5918C5.32238 9.59117 5.40242 9.59053 5.48181 9.5899C5.67936 9.58863 5.87627 9.58863 6.07127 9.59054C6.18687 9.59181 6.30184 9.59435 6.41681 9.59752C6.47398 9.59879 6.53178 9.6007 6.58831 9.60324C6.75918 9.60959 6.92877 9.61848 7.0971 9.63055C8.14325 9.70614 8.8356 10.5046 8.84703 11.4402C8.85783 12.379 8.23027 13.199 7.2343 13.2784C7.14092 13.2854 7.04819 13.2924 6.95481 13.2975C6.93004 13.2994 6.90527 13.3007 6.87986 13.3019C6.82079 13.3051 6.76172 13.3076 6.70264 13.3102C6.64548 13.3127 6.58768 13.3146 6.53051 13.3165C6.47207 13.3184 6.413 13.3204 6.35393 13.321C6.29485 13.3223 6.23642 13.3235 6.17671 13.3242C6.00267 13.3267 6.29803 13.3267 6.12272 13.3261H6.10239C6.10239 13.3261 6.10239 13.328 6.10239 13.3286C5.95566 13.3286 5.80894 13.3286 5.66221 13.3286C4.6872 13.3299 4.12252 13.8209 4.1168 14.7508C4.1168 14.7616 4.1168 14.7724 4.1168 14.7832C4.16825 15.5244 4.71451 15.9939 5.60377 16.0135C5.74351 16.0167 5.88389 16.0186 6.02363 16.0199C6.02617 16.0199 6.02808 16.0199 6.03062 16.0199C6.03252 16.0199 6.03379 16.0199 6.0357 16.0199C6.04078 16.0199 6.04523 16.0199 6.05031 16.0199C6.71916 16.0059 6.91734 15.9831 7.58492 15.9456C8.88324 15.8732 10.031 15.4393 10.7907 14.4783C11.0016 14.2115 11.1839 13.9066 11.3293 13.5547C12.016 11.8944 11.6673 10.3108 10.5138 8.96678C10.5087 8.96106 10.4992 8.95027 10.4941 8.94518C10.2895 8.73557 9.65118 8.13342 9.65118 8.13342C9.56098 8.0464 9.56543 7.9003 9.66071 7.81836L9.66007 7.82027ZM7.0971 6.42413C6.02299 6.50162 4.94 6.44954 3.81636 6.44318C3.69948 6.44255 3.6042 6.34791 3.6042 6.23103V2.9649C3.6042 2.84803 3.69885 2.75338 3.81572 2.75275C4.97938 2.74576 6.11256 2.68605 7.23303 2.77562C8.229 2.85501 8.8572 3.67504 8.84576 4.61385C8.83433 5.55011 8.14198 6.34791 7.09582 6.42349L7.0971 6.42413Z" fill="#FF1493"/>
<path d="M1.96162 16.0447C1.12 16.0542 0.507047 15.4546 0.50006 14.6148C0.493073 13.7745 1.09714 13.145 1.9197 13.1355C2.73147 13.1266 3.38444 13.7612 3.39905 14.5736C3.41303 15.3879 2.78102 16.0351 1.96226 16.0447H1.96162Z" fill="#224BF4"/>
<path d="M71.9571 7.83927C71.9571 7.82466 71.9571 7.80941 71.9558 7.7948C71.9546 7.73002 71.952 7.66586 71.9495 7.60171C71.9495 7.58773 71.9482 7.57503 71.9476 7.56106C71.9438 7.49246 71.9393 7.42449 71.9336 7.35716C71.9311 7.3235 71.9279 7.2892 71.9247 7.25553C71.9215 7.22314 71.919 7.19138 71.9152 7.15898C71.9107 7.1177 71.9069 7.07704 71.9019 7.03576C71.8987 7.01162 71.8955 6.98685 71.8923 6.96334C71.8847 6.90364 71.8765 6.84393 71.8669 6.78422C71.8593 6.73404 71.8517 6.68386 71.8434 6.63432C71.8409 6.62225 71.839 6.61145 71.8371 6.59938C71.6573 5.58308 71.2762 4.57187 70.6861 3.61401C68.6643 0.329454 63.9824 -0.950447 60.6057 0.842685C57.9354 2.26042 56.4351 4.4461 56.2267 7.47467C56.2191 7.58964 56.214 7.70397 56.2108 7.81767C56.2108 7.82656 56.2108 7.83546 56.2108 7.84498C56.2089 7.89834 56.2077 7.95233 56.207 8.00632C56.207 8.07619 56.207 8.14606 56.2083 8.2153C56.2083 8.22991 56.2083 8.24515 56.2083 8.25976C56.2102 8.32455 56.2127 8.38934 56.2153 8.45349C56.2153 8.46683 56.2153 8.48017 56.2166 8.49351C56.221 8.56211 56.2248 8.62944 56.2305 8.69804C56.2331 8.7317 56.2363 8.76537 56.2394 8.79904C56.2426 8.83143 56.2451 8.86382 56.249 8.89558C56.2534 8.93687 56.2572 8.97752 56.2629 9.01881C56.2661 9.04295 56.2686 9.06708 56.2718 9.09122C56.2794 9.15093 56.2883 9.21 56.2972 9.26971C56.3048 9.31989 56.3125 9.37007 56.3214 9.41961C56.3233 9.43168 56.3258 9.44311 56.3271 9.45455C56.5068 10.4708 56.888 11.4821 57.478 12.4406C59.5005 15.7245 64.1824 17.0044 67.5591 15.2112C70.2288 13.7935 71.7297 11.6085 71.9381 8.57926C71.9457 8.46429 71.9514 8.34996 71.9539 8.23689C71.9539 8.22737 71.9539 8.21847 71.9539 8.20895C71.9559 8.15559 71.9571 8.10223 71.9578 8.04824C71.9578 7.97837 71.9578 7.90787 71.9578 7.83863L71.9571 7.83927ZM68.7831 10.0199C68.4045 10.9847 67.7268 11.7901 66.8521 12.3478C66.001 12.8909 64.9631 13.2002 63.8305 13.1939C62.9381 13.1615 62.0952 12.9119 61.359 12.4298C60.7454 12.0277 60.2055 11.4649 59.7723 10.7319C59.3067 9.94364 59.0616 9.12997 59.0247 8.32709C58.9663 7.57757 59.0825 6.8001 59.3823 6.03597C59.7609 5.07049 60.4386 4.26571 61.3133 3.70738C62.1644 3.16429 63.2023 2.85496 64.3349 2.86131C65.2273 2.8937 66.0696 3.14333 66.8064 3.62607C67.42 4.02751 67.9605 4.59029 68.3931 5.32329C68.8587 6.11219 69.1039 6.92523 69.1407 7.72811C69.1985 8.47763 69.0823 9.2551 68.7825 10.0199H68.7831Z" fill="#FF1493"/>
<path d="M64.0949 9.48185C63.2533 9.49138 62.6403 8.89176 62.6334 8.05204C62.6264 7.21169 63.2304 6.58222 64.053 6.57269C64.8648 6.5638 65.5177 7.19835 65.5324 8.01076C65.5463 8.82507 64.9143 9.47232 64.0956 9.48185H64.0949Z" fill="#224BF4"/>
</svg>
