<svg width="209" height="40" viewBox="0 0 209 40" fill="none" xmlns="http://www.w3.org/2000/svg">
<path d="M205.357 31.027C204.514 29.0014 203.668 26.9772 202.783 24.8578C202.753 24.7857 202.731 24.7104 202.716 24.6336C202.635 24.2082 202.807 23.7736 203.157 23.5187C203.276 23.4311 203.382 23.3528 203.487 23.2714C207.944 19.8282 209.029 15.1871 207.941 9.95784C206.909 4.99578 203.617 1.79678 198.714 1.2178C193.504 0.601955 188.189 0.777032 182.921 0.830784C180.905 0.852285 179.712 2.52166 179.707 4.70859C179.684 15.0167 179.681 25.3247 179.71 35.6313C179.716 37.895 181.141 39.3893 183.175 39.4737C185.317 39.5628 186.867 38.1161 187.034 35.8125C187.097 34.9478 187.056 34.074 187.056 33.2047C187.057 30.8105 187.056 28.4178 187.056 25.9099C188.512 25.9099 189.688 25.9191 190.854 25.8914C193.443 25.8315 195.747 26.1387 196.361 27.3673C197.525 30.1501 199.196 34.3535 200.366 37.1332C201.185 39.079 202.948 39.8531 204.728 39.1942C206.603 38.5001 207.417 36.7001 206.733 34.6591C206.477 33.8928 205.666 31.7734 205.356 31.0255L205.357 31.027ZM196.703 19.4489C193.59 19.7468 190.427 19.5165 187.025 19.5165C187.025 15.9919 186.985 12.5855 187.077 9.18228C187.088 8.7707 187.816 8.04121 188.224 8.03199C190.949 7.97363 193.69 7.92449 196.402 8.15485C199.328 8.40365 200.924 10.3894 201.048 13.464C201.177 16.6553 199.577 19.1724 196.703 19.4489Z" fill="#FF1493"/>
<path d="M60.5347 31.027C59.6915 29.0014 58.8453 26.9772 57.9607 24.8578C57.93 24.7857 57.9085 24.7104 57.8932 24.6336C57.8118 24.2082 57.9838 23.7736 58.3339 23.5187C58.4537 23.4311 58.5597 23.3528 58.6641 23.2714C63.1209 19.8282 64.2067 15.1871 63.1178 9.95784C62.0858 4.99578 58.7947 1.79678 53.891 1.2178C48.6832 0.601955 43.3663 0.777032 38.1002 0.830784C36.0837 0.852285 34.8905 2.52166 34.8858 4.70859C34.8628 15.0167 34.8597 25.3247 34.8889 35.6313C34.8951 37.895 36.3202 39.3893 38.3536 39.4737C40.496 39.5628 42.0456 38.1161 42.213 35.8125C42.276 34.9478 42.2345 34.074 42.2345 33.2047C42.236 30.8105 42.2345 28.4178 42.2345 25.9099C43.6904 25.9099 44.8668 25.9191 46.0324 25.8914C48.6217 25.8315 50.9254 26.1387 51.5397 27.3673C52.7038 30.1501 54.3747 34.3535 55.545 37.1332C56.3635 39.079 58.1266 39.8531 59.9065 39.1942C61.7817 38.5001 62.5957 36.7001 61.9123 34.6591C61.6558 33.8928 60.8449 31.7734 60.5347 31.0255V31.027ZM51.8806 19.4489C48.7676 19.7468 45.604 19.5165 42.2022 19.5165C42.2022 15.9919 42.1623 12.5855 42.2544 9.18228C42.2652 8.7707 42.9932 8.04121 43.4017 8.03199C46.1261 7.97363 48.8675 7.92449 51.5796 8.15485C54.5053 8.40365 56.1009 10.3894 56.2253 13.464C56.3543 16.6553 54.7541 19.1724 51.8806 19.4489Z" fill="#FF1493"/>
<path d="M78.1038 8.15186V16.6984C80.4443 16.6984 82.708 16.6984 84.9733 16.6984C86.8316 16.6984 88.6898 16.6784 90.5466 16.7045C92.99 16.7399 94.5196 18.0837 94.5319 20.16C94.5442 22.1964 93.0007 23.6262 90.5573 23.6631C86.8423 23.7199 83.1258 23.6785 79.4107 23.6861C79.0437 23.6861 78.6766 23.7445 78.1668 23.789V32.2603C78.9147 32.2603 79.5766 32.2603 80.2385 32.2603C84.574 32.2649 88.9095 32.2281 93.2419 32.2956C95.3075 32.3279 96.7695 33.8713 96.8156 35.8248C96.8617 37.7568 95.4242 39.4262 93.3601 39.4508C86.9836 39.5276 80.604 39.526 74.2275 39.4554C72.188 39.4324 70.9441 38.0901 70.8043 36.0199C70.7045 34.5394 70.7536 33.0497 70.7521 31.5631C70.749 22.8937 70.7413 14.2243 70.7552 5.55488C70.7613 2.07944 72.0099 0.833937 75.4346 0.815508C77.4787 0.804757 90.7032 0.775578 92.7458 0.826258C95.1877 0.886153 96.8187 2.40349 96.8002 4.50595C96.7818 6.6207 95.1355 8.10272 92.7243 8.14726C91.6247 8.16876 79.3447 8.15033 78.1023 8.15033L78.1038 8.15186Z" fill="#FF1493"/>
<path d="M129.162 7.54985C131.023 5.77297 131.204 3.58911 129.653 1.98424C128.093 0.370146 125.921 0.516044 124.091 2.38968C122.898 3.61061 114.064 12.5472 112.54 14.1629C112.54 10.6997 112.545 7.74797 112.539 4.79776C112.534 3.01627 111.814 1.66019 110.095 1.00442C107.508 0.0169199 105.187 1.89977 105.181 5.0358C105.159 15.0889 105.173 25.1421 105.175 35.1936C105.175 35.5039 105.167 35.8172 105.204 36.1228C105.444 38.1085 106.881 39.4493 108.784 39.4754C110.777 39.503 112.296 38.1454 112.508 36.0752C112.589 35.2766 112.542 34.4642 112.543 33.6563C112.546 30.8428 112.543 28.0293 112.543 24.7074C113.93 26.1802 114.938 27.2507 115.948 28.3196C119.017 31.5677 122.07 34.8297 125.161 38.0548C126.835 39.8025 129.125 39.9868 130.618 38.5769C132.19 37.0903 132.101 34.7928 130.389 32.9591C129.881 32.4154 129.348 31.8933 128.826 31.3634C124.923 27.3966 121.019 23.4297 117.146 19.492L129.165 7.54832L129.162 7.54985Z" fill="#FF1493"/>
<path d="M22.5474 19.6486C22.5474 19.6486 24.0463 18.1343 24.5501 17.7105C24.5639 17.6982 24.5869 17.6782 24.61 17.6506C27.3866 14.3886 28.2436 10.7964 26.5834 6.78194C26.2317 5.93113 25.7894 5.19396 25.2811 4.54894C23.4443 2.22532 20.6707 1.17486 17.5301 1.00132C13.17 0.758665 8.79156 0.763273 4.42231 0.789381C4.41309 0.789381 4.40388 0.789381 4.39313 0.789381C4.24723 0.77863 4.09826 0.775559 3.94469 0.780166C1.76236 0.843133 0.440067 2.37429 0.436995 4.93902V5.00813C0.430852 10.0562 0.436995 15.1027 0.436995 20.1493C0.436995 25.1958 0.430852 21.9722 0.436995 27.0187C0.440067 29.6802 1.78079 31.2221 4.32095 31.2375C4.35013 31.2375 4.37931 31.2375 4.40849 31.2375C6.43109 31.0962 7.71346 29.605 7.76721 27.1785L7.77642 24.4924C7.77642 24.2098 8.00679 23.981 8.28937 23.9795C9.48266 23.9718 10.679 23.9457 11.8662 23.9318C12.0597 23.9303 12.2532 23.9288 12.4452 23.9272C12.9228 23.9242 13.3989 23.9242 13.8703 23.9288C14.1499 23.9318 14.4278 23.938 14.7058 23.9457C14.844 23.9487 14.9838 23.9533 15.1205 23.9595C15.5336 23.9748 15.9436 23.9963 16.3506 24.0255C18.88 24.2083 20.554 26.1387 20.5816 28.4009C20.6078 30.6708 19.0904 32.6535 16.6823 32.8454C16.4566 32.8623 16.2324 32.8792 16.0066 32.8915C15.9467 32.8961 15.8868 32.8992 15.8254 32.9023C15.6825 32.9099 15.5397 32.9161 15.3969 32.9222C15.2587 32.9284 15.1189 32.933 14.9807 32.9376C14.8394 32.9422 14.6966 32.9468 14.5538 32.9483C14.4109 32.9514 14.2696 32.9545 14.1253 32.956C13.7045 32.9622 14.4186 32.9622 13.9947 32.9606H13.9456C13.9456 32.9606 13.9456 32.9652 13.9456 32.9668C13.5908 32.9668 13.2361 32.9668 12.8813 32.9668C10.5239 32.9698 9.15861 34.157 9.14479 36.4053C9.14479 36.4314 9.14479 36.4576 9.14479 36.4837C9.26919 38.2759 10.5899 39.4108 12.74 39.4584C13.0779 39.4661 13.4173 39.4707 13.7552 39.4738C13.7613 39.4738 13.7659 39.4738 13.7721 39.4738C13.7767 39.4738 13.7797 39.4738 13.7843 39.4738C13.7966 39.4738 13.8074 39.4738 13.8197 39.4738C15.4368 39.44 15.916 39.3847 17.5301 39.2941C20.6692 39.119 23.4443 38.0701 25.2811 35.7465C25.791 35.1015 26.2317 34.3643 26.5834 33.5135C28.2436 29.499 27.4004 25.6703 24.6115 22.4206C24.5992 22.4068 24.5762 22.3807 24.5639 22.3684C24.0694 21.8616 22.5259 20.4057 22.5259 20.4057C22.3078 20.1953 22.3186 19.8421 22.549 19.644L22.5474 19.6486ZM16.3506 16.273C13.7536 16.4603 11.1351 16.3344 8.41837 16.319C8.13579 16.3175 7.90543 16.0887 7.90543 15.8061V7.90919C7.90543 7.62661 8.13426 7.39778 8.41684 7.39625C11.2304 7.37935 13.9702 7.23499 16.6793 7.45153C19.0873 7.64351 20.6062 9.62618 20.5786 11.896C20.5509 14.1598 18.8769 16.0887 16.3475 16.2714L16.3506 16.273Z" fill="#FF1493"/>
<path d="M3.93397 39.5335C1.89908 39.5566 0.417063 38.1068 0.400169 36.0765C0.383276 34.0447 1.84379 32.5228 3.83261 32.4997C5.79532 32.4782 7.37408 34.0125 7.40941 35.9767C7.44319 37.9456 5.91511 39.5105 3.9355 39.5335H3.93397Z" fill="#224BF4"/>
<path d="M173.171 19.6947C173.171 19.6593 173.171 19.6225 173.168 19.5872C173.165 19.4305 173.159 19.2754 173.152 19.1203C173.152 19.0865 173.149 19.0558 173.148 19.022C173.139 18.8561 173.128 18.6918 173.114 18.529C173.108 18.4476 173.1 18.3647 173.092 18.2833C173.085 18.205 173.079 18.1282 173.069 18.0499C173.059 17.95 173.049 17.8517 173.037 17.7519C173.03 17.6936 173.022 17.6337 173.014 17.5768C172.996 17.4325 172.976 17.2881 172.953 17.1438C172.934 17.0224 172.916 16.9011 172.896 16.7813C172.89 16.7521 172.885 16.726 172.881 16.6968C172.446 14.2396 171.524 11.7947 170.098 9.47875C165.209 1.5373 153.889 -1.55727 145.725 2.7782C139.269 6.20603 135.641 11.4906 135.138 18.8131C135.119 19.0911 135.107 19.3675 135.099 19.6424C135.099 19.6639 135.099 19.6854 135.099 19.7085C135.095 19.8375 135.092 19.968 135.09 20.0986C135.09 20.2675 135.09 20.4364 135.093 20.6038C135.093 20.6392 135.093 20.676 135.093 20.7113C135.098 20.868 135.104 21.0246 135.11 21.1798C135.11 21.212 135.11 21.2443 135.113 21.2765C135.124 21.4424 135.133 21.6052 135.147 21.771C135.153 21.8524 135.161 21.9338 135.168 22.0152C135.176 22.0935 135.182 22.1719 135.191 22.2486C135.202 22.3485 135.211 22.4468 135.225 22.5466C135.233 22.6049 135.239 22.6633 135.247 22.7217C135.265 22.866 135.287 23.0088 135.308 23.1532C135.326 23.2745 135.345 23.3959 135.366 23.5157C135.371 23.5448 135.377 23.5725 135.38 23.6001C135.815 26.0573 136.736 28.5023 138.163 30.8198C143.053 38.7597 154.373 41.8542 162.537 37.5188C168.992 34.0909 172.621 28.8079 173.125 21.4838C173.143 21.2059 173.157 20.9294 173.163 20.6561C173.163 20.633 173.163 20.6115 173.163 20.5885C173.168 20.4595 173.171 20.3305 173.172 20.1999C173.172 20.031 173.172 19.8605 173.172 19.6931L173.171 19.6947ZM165.497 24.9669C164.581 27.2998 162.943 29.2471 160.828 30.5955C158.77 31.9086 156.26 32.6565 153.522 32.6412C151.364 32.5629 149.327 31.9593 147.547 30.7936C146.063 29.8215 144.758 28.4608 143.71 26.6885C142.585 24.7827 141.992 22.8153 141.903 20.8741C141.761 19.0619 142.042 17.1821 142.767 15.3346C143.683 13.0003 145.321 11.0544 147.436 9.7045C149.494 8.39142 152.003 7.64351 154.742 7.65886C156.899 7.73719 158.936 8.34074 160.717 9.50793C162.201 10.4785 163.508 11.8392 164.554 13.6115C165.679 15.5189 166.272 17.4847 166.361 19.4259C166.501 21.2381 166.22 23.1179 165.495 24.9669H165.497Z" fill="#FF1493"/>
<path d="M154.161 23.6661C152.126 23.6891 150.644 22.2394 150.627 20.2091C150.61 18.1773 152.071 16.6553 154.06 16.6323C156.022 16.6108 157.601 18.145 157.637 20.1093C157.67 22.0781 156.142 23.6431 154.163 23.6661H154.161Z" fill="#224BF4"/>
</svg>
