<svg width="107" height="18" viewBox="0 0 107 18" fill="none" xmlns="http://www.w3.org/2000/svg">
<g id="Group 2">
<path id="Mask" d="M102.832 17.4167L101.333 10.9734L106.333 6.64033L99.7416 6.07475L97.1667 0L94.5917 6.07475L88 6.64033L93.0004 10.9734L91.5017 17.4167L97.1667 13.9993L102.832 17.4167Z" fill="white"/>
<path id="Mask_2" d="M80.8317 17.4167L79.3329 10.9734L84.3333 6.64033L77.7416 6.07475L75.1667 0L72.5917 6.07475L66 6.64033L71.0004 10.9734L69.5017 17.4167L75.1667 13.9993L80.8317 17.4167Z" fill="white"/>
<path id="Mask_3" d="M58.8317 17.4167L57.3329 10.9734L62.3333 6.64033L55.7416 6.07475L53.1667 0L50.5917 6.07475L44 6.64033L49.0004 10.9734L47.5017 17.4167L53.1667 13.9993L58.8317 17.4167Z" fill="white"/>
<path id="Mask_4" d="M36.8317 17.4167L35.3329 10.9734L40.3333 6.64033L33.7416 6.07475L31.1667 0L28.5917 6.07475L22 6.64033L27.0004 10.9734L25.5017 17.4167L31.1667 13.9993L36.8317 17.4167Z" fill="white"/>
<path id="Mask_5" d="M14.8317 17.4167L13.3329 10.9734L18.3333 6.64033L11.7416 6.07475L9.16667 0L6.59175 6.07475L0 6.64033L5.00042 10.9734L3.50167 17.4167L9.16667 13.9993L14.8317 17.4167Z" fill="white"/>
</g>
</svg>
